<?xml version="1.0" encoding="UTF-8" standalone="no"?>
<!DOCTYPE svg PUBLIC "-//W3C//DTD SVG 1.1//EN"
 "http://www.w3.org/Graphics/SVG/1.1/DTD/svg11.dtd">
<!-- Generated by graphviz version 2.43.0 (0)
 -->
<!-- Title: %3 Pages: 1 -->
<svg width="757pt" height="476pt"
 viewBox="0.00 0.00 756.72 476.00" xmlns="http://www.w3.org/2000/svg" xmlns:xlink="http://www.w3.org/1999/xlink">
<g id="graph0" class="graph" transform="scale(1 1) rotate(0) translate(4 472)">
<title>%3</title>
<polygon fill="white" stroke="transparent" points="-4,4 -4,-472 752.72,-472 752.72,4 -4,4"/>
<!-- [root] aws_egress_only_internet_gateway.egress_gw -->
<g id="node1" class="node">
<title>[root] aws_egress_only_internet_gateway.egress_gw</title>
<polygon fill="none" stroke="black" points="276.6,-324 0.13,-324 0.13,-288 276.6,-288 276.6,-324"/>
<text text-anchor="middle" x="138.37" y="-301.8" font-family="Times,serif" font-size="14.00">aws_egress_only_internet_gateway.egress_gw</text>
</g>
<!-- [root] aws_vpc.venky_vpc -->
<g id="node9" class="node">
<title>[root] aws_vpc.venky_vpc</title>
<polygon fill="none" stroke="black" points="519.28,-108 389.45,-108 389.45,-72 519.28,-72 519.28,-108"/>
<text text-anchor="middle" x="454.37" y="-85.8" font-family="Times,serif" font-size="14.00">aws_vpc.venky_vpc</text>
</g>
<!-- [root] aws_egress_only_internet_gateway.egress_gw&#45;&gt;[root] aws_vpc.venky_vpc -->
<g id="edge1" class="edge">
<title>[root] aws_egress_only_internet_gateway.egress_gw&#45;&gt;[root] aws_vpc.venky_vpc</title>
<path fill="none" stroke="black" d="M144.14,-287.84C156.24,-254.63 187.5,-181.51 239.37,-144 279.97,-114.64 334.97,-101.43 379.17,-95.55"/>
<polygon fill="black" stroke="black" points="379.8,-99 389.29,-94.3 378.94,-92.05 379.8,-99"/>
</g>
<!-- [root] aws_instance.test -->
<g id="node2" class="node">
<title>[root] aws_instance.test</title>
<polygon fill="none" stroke="black" points="663.95,-324 550.78,-324 550.78,-288 663.95,-288 663.95,-324"/>
<text text-anchor="middle" x="607.37" y="-301.8" font-family="Times,serif" font-size="14.00">aws_instance.test</text>
</g>
<!-- [root] aws_security_group.sg -->
<g id="node7" class="node">
<title>[root] aws_security_group.sg</title>
<polygon fill="none" stroke="black" points="748.57,-252 604.17,-252 604.17,-216 748.57,-216 748.57,-252"/>
<text text-anchor="middle" x="676.37" y="-229.8" font-family="Times,serif" font-size="14.00">aws_security_group.sg</text>
</g>
<!-- [root] aws_instance.test&#45;&gt;[root] aws_security_group.sg -->
<g id="edge2" class="edge">
<title>[root] aws_instance.test&#45;&gt;[root] aws_security_group.sg</title>
<path fill="none" stroke="black" d="M624.42,-287.7C632.86,-279.14 643.19,-268.66 652.41,-259.3"/>
<polygon fill="black" stroke="black" points="654.98,-261.68 659.51,-252.1 650,-256.77 654.98,-261.68"/>
</g>
<!-- [root] aws_subnet.venky_subnet1 -->
<g id="node8" class="node">
<title>[root] aws_subnet.venky_subnet1</title>
<polygon fill="none" stroke="black" points="651.96,-180 482.78,-180 482.78,-144 651.96,-144 651.96,-180"/>
<text text-anchor="middle" x="567.37" y="-157.8" font-family="Times,serif" font-size="14.00">aws_subnet.venky_subnet1</text>
</g>
<!-- [root] aws_instance.test&#45;&gt;[root] aws_subnet.venky_subnet1 -->
<g id="edge3" class="edge">
<title>[root] aws_instance.test&#45;&gt;[root] aws_subnet.venky_subnet1</title>
<path fill="none" stroke="black" d="M602.54,-287.87C595.7,-263.56 583.09,-218.82 574.98,-190.01"/>
<polygon fill="black" stroke="black" points="578.29,-188.87 572.21,-180.19 571.55,-190.76 578.29,-188.87"/>
</g>
<!-- [root] aws_internet_gateway.mygw -->
<g id="node3" class="node">
<title>[root] aws_internet_gateway.mygw</title>
<polygon fill="none" stroke="black" points="426.63,-180 248.1,-180 248.1,-144 426.63,-144 426.63,-180"/>
<text text-anchor="middle" x="337.37" y="-157.8" font-family="Times,serif" font-size="14.00">aws_internet_gateway.mygw</text>
</g>
<!-- [root] aws_internet_gateway.mygw&#45;&gt;[root] aws_vpc.venky_vpc -->
<g id="edge4" class="edge">
<title>[root] aws_internet_gateway.mygw&#45;&gt;[root] aws_vpc.venky_vpc</title>
<path fill="none" stroke="black" d="M365.99,-143.88C381.29,-134.72 400.31,-123.34 416.79,-113.48"/>
<polygon fill="black" stroke="black" points="418.85,-116.33 425.64,-108.19 415.26,-110.32 418.85,-116.33"/>
</g>
<!-- [root] aws_network_acl.acl -->
<g id="node4" class="node">
<title>[root] aws_network_acl.acl</title>
<polygon fill="none" stroke="black" points="532.15,-324 398.58,-324 398.58,-288 532.15,-288 532.15,-324"/>
<text text-anchor="middle" x="465.37" y="-301.8" font-family="Times,serif" font-size="14.00">aws_network_acl.acl</text>
</g>
<!-- [root] aws_network_acl.acl&#45;&gt;[root] aws_vpc.venky_vpc -->
<g id="edge5" class="edge">
<title>[root] aws_network_acl.acl&#45;&gt;[root] aws_vpc.venky_vpc</title>
<path fill="none" stroke="black" d="M464.49,-287.85C462.58,-250.83 458.08,-163.18 455.78,-118.39"/>
<polygon fill="black" stroke="black" points="459.26,-118.04 455.25,-108.23 452.27,-118.4 459.26,-118.04"/>
</g>
<!-- [root] aws_route.rt -->
<g id="node5" class="node">
<title>[root] aws_route.rt</title>
<polygon fill="none" stroke="black" points="379.96,-324 294.78,-324 294.78,-288 379.96,-288 379.96,-324"/>
<text text-anchor="middle" x="337.37" y="-301.8" font-family="Times,serif" font-size="14.00">aws_route.rt</text>
</g>
<!-- [root] aws_route_table.rtbl -->
<g id="node6" class="node">
<title>[root] aws_route_table.rtbl</title>
<polygon fill="none" stroke="black" points="402.56,-252 272.18,-252 272.18,-216 402.56,-216 402.56,-252"/>
<text text-anchor="middle" x="337.37" y="-229.8" font-family="Times,serif" font-size="14.00">aws_route_table.rtbl</text>
</g>
<!-- [root] aws_route.rt&#45;&gt;[root] aws_route_table.rtbl -->
<g id="edge6" class="edge">
<title>[root] aws_route.rt&#45;&gt;[root] aws_route_table.rtbl</title>
<path fill="none" stroke="black" d="M337.37,-287.7C337.37,-279.98 337.37,-270.71 337.37,-262.11"/>
<polygon fill="black" stroke="black" points="340.87,-262.1 337.37,-252.1 333.87,-262.1 340.87,-262.1"/>
</g>
<!-- [root] aws_route_table.rtbl&#45;&gt;[root] aws_internet_gateway.mygw -->
<g id="edge7" class="edge">
<title>[root] aws_route_table.rtbl&#45;&gt;[root] aws_internet_gateway.mygw</title>
<path fill="none" stroke="black" d="M337.37,-215.7C337.37,-207.98 337.37,-198.71 337.37,-190.11"/>
<polygon fill="black" stroke="black" points="340.87,-190.1 337.37,-180.1 333.87,-190.1 340.87,-190.1"/>
</g>
<!-- [root] aws_security_group.sg&#45;&gt;[root] aws_vpc.venky_vpc -->
<g id="edge8" class="edge">
<title>[root] aws_security_group.sg&#45;&gt;[root] aws_vpc.venky_vpc</title>
<path fill="none" stroke="black" d="M678.56,-215.9C680.09,-196.04 679.29,-163.49 661.37,-144 643.45,-124.51 581.16,-110.28 529.55,-101.5"/>
<polygon fill="black" stroke="black" points="529.83,-98 519.39,-99.82 528.68,-104.9 529.83,-98"/>
</g>
<!-- [root] aws_subnet.venky_subnet1&#45;&gt;[root] aws_vpc.venky_vpc -->
<g id="edge9" class="edge">
<title>[root] aws_subnet.venky_subnet1&#45;&gt;[root] aws_vpc.venky_vpc</title>
<path fill="none" stroke="black" d="M539.73,-143.88C524.95,-134.72 506.58,-123.34 490.67,-113.48"/>
<polygon fill="black" stroke="black" points="492.46,-110.48 482.12,-108.19 488.78,-116.43 492.46,-110.48"/>
</g>
<!-- [root] provider.aws -->
<g id="node10" class="node">
<title>[root] provider.aws</title>
<polygon fill="none" stroke="black" points="454.37,-36 375.76,-18 454.37,0 532.98,-18 454.37,-36"/>
<text text-anchor="middle" x="454.37" y="-13.8" font-family="Times,serif" font-size="14.00">provider.aws</text>
</g>
<!-- [root] aws_vpc.venky_vpc&#45;&gt;[root] provider.aws -->
<g id="edge10" class="edge">
<title>[root] aws_vpc.venky_vpc&#45;&gt;[root] provider.aws</title>
<path fill="none" stroke="black" d="M454.37,-71.7C454.37,-63.98 454.37,-54.71 454.37,-46.11"/>
<polygon fill="black" stroke="black" points="457.87,-46.1 454.37,-36.1 450.87,-46.1 457.87,-46.1"/>
</g>
<!-- [root] meta.count&#45;boundary (EachMode fixup) -->
<g id="node11" class="node">
<title>[root] meta.count&#45;boundary (EachMode fixup)</title>
<ellipse fill="none" stroke="black" cx="239.37" cy="-378" rx="174.79" ry="18"/>
<text text-anchor="middle" x="239.37" y="-373.8" font-family="Times,serif" font-size="14.00">[root] meta.count&#45;boundary (EachMode fixup)</text>
</g>
<!-- [root] meta.count&#45;boundary (EachMode fixup)&#45;&gt;[root] aws_egress_only_internet_gateway.egress_gw -->
<g id="edge11" class="edge">
<title>[root] meta.count&#45;boundary (EachMode fixup)&#45;&gt;[root] aws_egress_only_internet_gateway.egress_gw</title>
<path fill="none" stroke="black" d="M214.92,-360.05C201.87,-351.01 185.61,-339.74 171.45,-329.93"/>
<polygon fill="black" stroke="black" points="173.16,-326.85 162.94,-324.03 169.17,-332.6 173.16,-326.85"/>
</g>
<!-- [root] meta.count&#45;boundary (EachMode fixup)&#45;&gt;[root] aws_instance.test -->
<g id="edge12" class="edge">
<title>[root] meta.count&#45;boundary (EachMode fixup)&#45;&gt;[root] aws_instance.test</title>
<path fill="none" stroke="black" d="M331.92,-362.69C389.3,-353.36 464.71,-340.28 540.36,-324.13"/>
<polygon fill="black" stroke="black" points="541.51,-327.46 550.55,-321.94 540.04,-320.62 541.51,-327.46"/>
</g>
<!-- [root] meta.count&#45;boundary (EachMode fixup)&#45;&gt;[root] aws_network_acl.acl -->
<g id="edge13" class="edge">
<title>[root] meta.count&#45;boundary (EachMode fixup)&#45;&gt;[root] aws_network_acl.acl</title>
<path fill="none" stroke="black" d="M291.79,-360.76C324.18,-350.73 366.02,-337.77 400.5,-327.09"/>
<polygon fill="black" stroke="black" points="401.96,-330.3 410.48,-324 399.89,-323.62 401.96,-330.3"/>
</g>
<!-- [root] meta.count&#45;boundary (EachMode fixup)&#45;&gt;[root] aws_route.rt -->
<g id="edge14" class="edge">
<title>[root] meta.count&#45;boundary (EachMode fixup)&#45;&gt;[root] aws_route.rt</title>
<path fill="none" stroke="black" d="M263.09,-360.05C275.76,-351.01 291.53,-339.74 305.27,-329.93"/>
<polygon fill="black" stroke="black" points="307.42,-332.69 313.52,-324.03 303.35,-327 307.42,-332.69"/>
</g>
<!-- [root] provider.aws (close) -->
<g id="node12" class="node">
<title>[root] provider.aws (close)</title>
<ellipse fill="none" stroke="black" cx="536.37" cy="-378" rx="104.33" ry="18"/>
<text text-anchor="middle" x="536.37" y="-373.8" font-family="Times,serif" font-size="14.00">[root] provider.aws (close)</text>
</g>
<!-- [root] provider.aws (close)&#45;&gt;[root] aws_egress_only_internet_gateway.egress_gw -->
<g id="edge15" class="edge">
<title>[root] provider.aws (close)&#45;&gt;[root] aws_egress_only_internet_gateway.egress_gw</title>
<path fill="none" stroke="black" d="M466.13,-364.65C404.98,-353.89 315.4,-338.14 245.34,-325.81"/>
<polygon fill="black" stroke="black" points="245.6,-322.31 235.15,-324.02 244.39,-329.2 245.6,-322.31"/>
</g>
<!-- [root] provider.aws (close)&#45;&gt;[root] aws_instance.test -->
<g id="edge16" class="edge">
<title>[root] provider.aws (close)&#45;&gt;[root] aws_instance.test</title>
<path fill="none" stroke="black" d="M553.56,-360.05C562.23,-351.5 572.92,-340.96 582.48,-331.54"/>
<polygon fill="black" stroke="black" points="585.18,-333.79 589.85,-324.28 580.27,-328.8 585.18,-333.79"/>
</g>
<!-- [root] provider.aws (close)&#45;&gt;[root] aws_network_acl.acl -->
<g id="edge17" class="edge">
<title>[root] provider.aws (close)&#45;&gt;[root] aws_network_acl.acl</title>
<path fill="none" stroke="black" d="M519.18,-360.05C510.5,-351.5 499.81,-340.96 490.25,-331.54"/>
<polygon fill="black" stroke="black" points="492.47,-328.8 482.89,-324.28 487.55,-333.79 492.47,-328.8"/>
</g>
<!-- [root] provider.aws (close)&#45;&gt;[root] aws_route.rt -->
<g id="edge18" class="edge">
<title>[root] provider.aws (close)&#45;&gt;[root] aws_route.rt</title>
<path fill="none" stroke="black" d="M492.7,-361.64C462.42,-350.99 421.95,-336.75 389.91,-325.48"/>
<polygon fill="black" stroke="black" points="390.85,-322.1 380.25,-322.09 388.53,-328.71 390.85,-322.1"/>
</g>
<!-- [root] root -->
<g id="node13" class="node">
<title>[root] root</title>
<ellipse fill="none" stroke="black" cx="387.37" cy="-450" rx="46.9" ry="18"/>
<text text-anchor="middle" x="387.37" y="-445.8" font-family="Times,serif" font-size="14.00">[root] root</text>
</g>
<!-- [root] root&#45;&gt;[root] meta.count&#45;boundary (EachMode fixup) -->
<g id="edge19" class="edge">
<title>[root] root&#45;&gt;[root] meta.count&#45;boundary (EachMode fixup)</title>
<path fill="none" stroke="black" d="M358.83,-435.5C337.53,-425.43 308.02,-411.47 283.66,-399.95"/>
<polygon fill="black" stroke="black" points="285.14,-396.78 274.61,-395.67 282.15,-403.11 285.14,-396.78"/>
</g>
<!-- [root] root&#45;&gt;[root] provider.aws (close) -->
<g id="edge20" class="edge">
<title>[root] root&#45;&gt;[root] provider.aws (close)</title>
<path fill="none" stroke="black" d="M415.74,-435.67C437.53,-425.43 468,-411.12 492.86,-399.44"/>
<polygon fill="black" stroke="black" points="494.52,-402.53 502.08,-395.11 491.54,-396.19 494.52,-402.53"/>
</g>
</g>
</svg>
